<svg viewBox="0 -100 512 512" xmlns="http://www.w3.org/2000/svg" xmlns:xlink="http://www.w3.org/1999/xlink" overflow="hidden"><path d="M494.535 0 17.4648 0C7.83594 0-2.84217e-14 7.83594-2.84217e-14 17.4648L-2.84217e-14 293.918C-2.84217e-14 303.547 7.83594 311.379 17.4648 311.379L494.535 311.379C504.164 311.379 512 303.547 512 293.918L512 17.4648C512 7.83594 504.164-2.84217e-14 494.535-2.84217e-14ZM30.0313 43.0273 173.539 138.41 30.0313 263.332ZM256 157.156 64.7344 30.0313 447.266 30.0313ZM199.477 155.645 246.332 186.789C249.27 188.742 252.633 189.719 256 189.719 259.363 189.719 262.73 188.738 265.668 186.789L312.523 155.645 456.926 281.348 55.0742 281.348ZM338.461 138.406 481.969 43.0234 481.969 263.332Z" stroke="#FFFFFF" stroke-width="1" stroke-linecap="butt" stroke-opacity="1" fill="#FFFFFF" fill-opacity="1"/></svg>