<svg viewBox="-110 1 511 512" xmlns="http://www.w3.org/2000/svg" xmlns:xlink="http://www.w3.org/1999/xlink" overflow="hidden"><path d="M180 512 98.0078 512C84.3125 512 73.1719 500.859 73.1719 487.164L73.1719 302.227 25.3359 302.227C11.6406 302.227 0.5 291.082 0.5 277.391L0.5 198.145C0.5 184.449 11.6406 173.309 25.3359 173.309L73.1719 173.309 73.1719 133.625C73.1719 94.2773 85.5273 60.8008 108.898 36.8203 132.375 12.7305 165.184 0 203.777 0L266.309 0.101562C279.98 0.125 291.102 11.2656 291.102 24.9375L291.102 98.5156C291.102 112.211 279.965 123.352 266.273 123.352L224.172 123.367C211.332 123.367 208.063 125.941 207.363 126.73 206.211 128.039 204.84 131.738 204.84 141.953L204.84 173.305 263.109 173.305C267.496 173.305 271.746 174.387 275.398 176.426 283.277 180.828 288.176 189.152 288.176 198.148L288.145 277.395C288.145 291.082 277.004 302.223 263.309 302.223L204.84 302.223 204.84 487.164C204.84 500.859 193.695 512 180 512ZM103.188 481.984 174.82 481.984 174.82 288.789C174.82 279.645 182.262 272.207 191.402 272.207L258.129 272.207 258.156 203.324 191.398 203.324C182.258 203.324 174.82 195.887 174.82 186.742L174.82 141.953C174.82 130.227 176.012 116.891 184.863 106.867 195.559 94.75 212.414 93.3516 224.164 93.3516L261.086 93.3359 261.086 30.1094 203.754 30.0156C141.73 30.0156 103.188 69.7188 103.188 133.625L103.188 186.742C103.188 195.883 95.75 203.324 86.6094 203.324L30.5156 203.324 30.5156 272.207 86.6094 272.207C95.75 272.207 103.188 279.645 103.188 288.789ZM266.25 30.1172 266.254 30.1172Z" stroke="none" stroke-width="1" stroke-linecap="butt" fill="#FFFFFF" fill-opacity="1"/></svg>