<svg viewBox="0 0 512.001 512.001" xmlns="http://www.w3.org/2000/svg" xmlns:xlink="http://www.w3.org/1999/xlink" id="Capa_1" overflow="hidden"><g><g><path d="M317.015 329.981 302.016 329.981 302.016 194.991C302.016 186.708 295.3 179.992 287.017 179.992L197.024 179.992C188.741 179.992 182.025 186.707 182.025 194.991L182.025 254.986C182.025 263.269 188.74 269.985 197.024 269.985L212.023 269.985 212.023 329.98 197.024 329.98C188.741 329.98 182.025 336.695 182.025 344.979L182.025 404.974C182.025 413.257 188.74 419.973 197.024 419.973L317.015 419.973C325.298 419.973 332.014 413.258 332.014 404.974L332.014 344.98C332.014 336.697 325.298 329.981 317.015 329.981ZM302.016 389.977 212.023 389.977 212.023 359.979 227.022 359.979C235.305 359.979 242.021 353.264 242.021 344.98L242.021 254.987C242.021 246.704 235.305 239.988 227.022 239.988L212.023 239.988 212.023 209.99 272.018 209.99 272.018 344.98C272.018 353.263 278.734 359.979 287.017 359.979L302.016 359.979 302.016 389.977Z" stroke="none" stroke-width="1" stroke-linecap="butt" fill="#FFFFFF" fill-opacity="1"/></g></g><g><g><path d="M257.019 60.002C232.208 60.002 212.022 80.187 212.022 104.999 212.022 129.811 232.207 149.996 257.019 149.996 281.831 149.996 302.016 129.811 302.016 104.999 302.016 80.187 281.831 60.002 257.019 60.002ZM257.019 119.997C248.749 119.997 242.02 113.269 242.02 104.998 242.02 96.728 248.749 89.999 257.019 89.999 265.289 89.999 272.018 96.728 272.018 104.998 272.018 113.269 265.29 119.997 257.019 119.997Z" stroke="none" stroke-width="1" stroke-linecap="butt" fill="#FFFFFF" fill-opacity="1"/></g></g><g><g><path d="M257.019 0.006C117.135 0.006 0.039 113.022 0.039 254.987 0.039 304.342 14.2 353.391 40.056 394.039L1.112 491.399C-3.809 503.699 8.488 515.744 20.608 510.896L117.968 471.952C158.616 497.807 207.665 511.969 257.02 511.969 399.139 511.969 512.001 394.721 512.001 254.989 512 114.059 397.959 0.006 257.019 0.006ZM257.019 482.17C210.883 482.17 165.116 468.036 128.15 442.735 124.015 439.905 118.749 439.33 114.108 441.186L41.961 470.045 70.82 397.899C72.678 393.253 72.097 387.986 69.271 383.857 43.97 346.891 29.836 301.124 29.836 254.988 29.836 130.932 131.86 29.805 257.019 29.805 381.075 29.805 482.202 131.132 482.202 255.188 482.202 380.346 381.076 482.17 257.019 482.17Z" stroke="none" stroke-width="1" stroke-linecap="butt" fill="#FFFFFF" fill-opacity="1"/></g></g><g></g><g></g><g></g><g></g><g></g><g></g><g></g><g></g><g></g><g></g><g></g><g></g><g></g><g></g><g></g></svg>