<svg viewBox="0 0 512.001 512.001" xmlns="http://www.w3.org/2000/svg" xmlns:xlink="http://www.w3.org/1999/xlink" overflow="hidden"><path d="M373.406 0 138.594 0C62.1719 0 0 62.1719 0 138.594L0 373.41C0 449.828 62.1719 512 138.594 512L373.41 512C449.828 512 512 449.828 512 373.41L512 138.594C512 62.1719 449.828 2.84217e-14 373.406 2.84217e-14ZM481.984 373.41C481.984 433.277 433.277 481.984 373.406 481.984L138.594 481.984C78.7227 481.984 30.0156 433.277 30.0156 373.41L30.0156 138.594C30.0156 78.7227 78.7227 30.0156 138.594 30.0156L373.41 30.0156C433.277 30.0156 481.984 78.7227 481.984 138.594Z" stroke="none" stroke-width="1" stroke-linecap="butt" fill="#FFFFFF" fill-opacity="1"/><path d="M256 116.004C178.805 116.004 116.004 178.805 116.004 256 116.004 333.195 178.805 395.996 256 395.996 333.195 395.996 395.996 333.195 395.996 256 395.996 178.805 333.195 116.004 256 116.004ZM256 365.98C195.359 365.98 146.02 316.645 146.02 256 146.02 195.359 195.359 146.02 256 146.02 316.645 146.02 365.98 195.359 365.98 256 365.98 316.645 316.645 365.98 256 365.98Z" stroke="none" stroke-width="1" stroke-linecap="butt" fill="#FFFFFF" fill-opacity="1"/><path d="M399.344 66.2852C376.531 66.2852 357.977 84.8438 357.977 107.652 357.977 130.465 376.531 149.023 399.344 149.023 422.156 149.023 440.715 130.465 440.715 107.652 440.715 84.8398 422.156 66.2852 399.344 66.2852ZM399.344 119.004C393.086 119.004 387.992 113.91 387.992 107.652 387.992 101.391 393.086 96.3008 399.344 96.3008 405.605 96.3008 410.699 101.391 410.699 107.652 410.699 113.91 405.605 119.004 399.344 119.004Z" stroke="none" stroke-width="1" stroke-linecap="butt" fill="#FFFFFF" fill-opacity="1"/></svg>