<svg viewBox="0 -45 512 512" xmlns="http://www.w3.org/2000/svg" xmlns:xlink="http://www.w3.org/1999/xlink" overflow="hidden"><path d="M473.66 119.762 446.387 119.762C414.082 52.4258 349.004 7.50391 275.082 0.859375 273.457 0.457031 271.777 0.324219 270.113 0.476562 265.438 0.164062 260.734 0 256 0 174.324 0 100.672 46.6836 65.6094 119.762L38.3398 119.762C17.1992 119.762-2.84217e-14 136.961-2.84217e-14 158.102L-2.84217e-14 264.191C-2.84217e-14 285.332 17.1992 302.531 38.3398 302.531L65.6055 302.531C100.672 375.578 174.426 422.289 255.996 422.289 261.629 422.289 267.215 422.063 272.762 421.625 272.863 421.617 272.961 421.609 273.063 421.602 347.816 415.602 413.785 370.48 446.387 302.531L473.66 302.531C494.801 302.531 512 285.332 512 264.191L512 158.102C512 136.961 494.801 119.762 473.66 119.762ZM412.473 119.762 351.551 119.762C339.387 85.7969 322.617 57.6758 308.613 37.75 352.004 50.875 389.258 79.957 412.473 119.762ZM241.004 119.762 192.668 119.762C207.805 82.4063 228.664 53.4883 241.004 38.2422ZM270.992 37.707C283.328 52.9375 304.273 81.9883 319.469 119.762L270.992 119.762ZM203.797 37.6289C189.738 57.5039 172.824 85.6797 160.551 119.762L99.5195 119.762C122.813 79.8281 160.23 50.6914 203.797 37.6289ZM99.5313 302.531 160.785 302.531C173.094 336.594 189.977 364.805 203.977 384.699 160.359 371.656 122.855 342.492 99.5313 302.531ZM270.992 302.531 319.129 302.531C304.008 339.898 283.27 368.91 270.992 384.234ZM241.004 384.008C228.723 368.742 208.043 339.891 192.898 302.531L241.004 302.531ZM308.215 384.656C322.172 364.742 338.977 336.551 351.238 302.531L412.473 302.531C389.188 342.457 351.777 371.594 308.215 384.656ZM482.012 264.191C482.012 268.793 478.266 272.539 473.66 272.539L38.3398 272.539C33.7344 272.539 29.9883 268.793 29.9883 264.191L29.9883 158.102C29.9883 153.496 33.7344 149.75 38.3398 149.75L473.66 149.75C478.266 149.75 482.012 153.496 482.012 158.102Z" stroke="none" stroke-width="1" stroke-linecap="butt" fill="#FFFFFF" fill-opacity="1"/><path d="M180.48 173.02C176.598 170.887 172.801 169.813 169.086 169.813 165.262 169.813 162.898 171.164 162 173.863L146.977 216.734 136.176 180.449C135.164 177.074 132.293 175.383 127.57 175.383 122.844 175.383 119.973 177.07 118.961 180.449L108.16 216.734 93.1367 173.863C92.2344 171.164 89.8164 169.813 85.8789 169.813 82.168 169.813 78.3711 170.855 74.4883 172.938 70.6055 175.02 68.6641 177.469 68.6641 180.277 68.6641 181.18 68.9453 182.363 69.5078 183.824L95.5 248.801C96.7383 251.84 100.059 253.355 105.457 253.355 111.645 253.355 115.301 251.84 116.43 248.801L127.566 219.434 138.707 248.801C139.828 251.84 143.434 253.355 149.508 253.355 155.02 253.355 158.395 251.84 159.633 248.801L185.625 183.824C186.074 182.922 186.301 181.855 186.301 180.617 186.301 177.691 184.359 175.16 180.48 173.02Z" stroke="none" stroke-width="1" stroke-linecap="butt" fill="#FFFFFF" fill-opacity="1"/><path d="M309.086 173.02C305.203 170.887 301.406 169.813 297.691 169.813 293.867 169.813 291.504 171.164 290.605 173.863L275.582 216.734 264.781 180.449C263.77 177.074 260.898 175.383 256.172 175.383 251.449 175.383 248.578 177.07 247.566 180.449L236.766 216.734 221.746 173.863C220.844 171.164 218.426 169.813 214.488 169.813 210.773 169.813 206.977 170.855 203.094 172.938 199.215 175.02 197.273 177.469 197.273 180.277 197.273 181.18 197.551 182.363 198.117 183.824L224.105 248.801C225.344 251.84 228.664 253.355 234.063 253.355 240.25 253.355 243.91 251.84 245.035 248.801L256.172 219.434 267.313 248.801C268.438 251.84 272.039 253.355 278.113 253.355 283.625 253.355 287 251.84 288.242 248.801L314.23 183.824C314.68 182.922 314.906 181.855 314.906 180.617 314.906 177.691 312.969 175.16 309.086 173.02Z" stroke="none" stroke-width="1" stroke-linecap="butt" fill="#FFFFFF" fill-opacity="1"/><path d="M437.691 173.02C433.809 170.887 430.012 169.813 426.297 169.813 422.473 169.813 420.109 171.164 419.211 173.863L404.188 216.734 393.387 180.449C392.375 177.074 389.504 175.383 384.777 175.383 380.055 175.383 377.184 177.07 376.172 180.449L365.371 216.734 350.352 173.863C349.449 171.164 347.031 169.813 343.094 169.813 339.379 169.813 335.582 170.855 331.699 172.938 327.82 175.02 325.879 177.469 325.879 180.277 325.879 181.18 326.156 182.363 326.723 183.824L352.711 248.801C353.949 251.84 357.27 253.355 362.668 253.355 368.855 253.355 372.516 251.84 373.641 248.801L384.777 219.434 395.918 248.801C397.043 251.84 400.645 253.355 406.719 253.355 412.23 253.355 415.605 251.84 416.848 248.801L442.836 183.824C443.285 182.922 443.512 181.855 443.512 180.617 443.512 177.691 441.574 175.16 437.691 173.02Z" stroke="none" stroke-width="1" stroke-linecap="butt" fill="#FFFFFF" fill-opacity="1"/></svg>